<?xml version="1.0" encoding="utf-8"?>
<!-- Generator: Adobe Illustrator 25.2.0, SVG Export Plug-In . SVG Version: 6.00 Build 0)  -->
<svg version="1.1" id="Layer_1" xmlns="http://www.w3.org/2000/svg" xmlns:xlink="http://www.w3.org/1999/xlink" x="0px" y="0px"
	 viewBox="0 0 881.7 603.9" style="enable-background:new 0 0 881.7 603.9;" xml:space="preserve">
<style type="text/css">
	.st0{fill:#126477;}
	.st1{fill:#1BA2C1;}
	.st2{fill:url(#SVGID_1_);}
	.st3{fill:none;}
</style>
<g>
	<polygon class="st0" points="125.2,330.3 371.6,268.9 704.3,120 	"/>
	<polygon class="st1" points="707.2,121 618,292.4 422.3,349.2 380.7,276.5 	"/>
	
		<linearGradient id="SVGID_1_" gradientUnits="userSpaceOnUse" x1="548.8494" y1="-17.1939" x2="895.2095" y2="-17.1939" gradientTransform="matrix(1 0 0 -1 -228.21 253.1228)">
		<stop  offset="0" style="stop-color:#FFFFFF"/>
		<stop  offset="0" style="stop-color:#E1F3F7"/>
		<stop  offset="0" style="stop-color:#B8E2EC"/>
		<stop  offset="0" style="stop-color:#92D3E1"/>
		<stop  offset="0" style="stop-color:#72C5D9"/>
		<stop  offset="0" style="stop-color:#56BAD1"/>
		<stop  offset="0" style="stop-color:#40B1CB"/>
		<stop  offset="0" style="stop-color:#30AAC7"/>
		<stop  offset="0" style="stop-color:#24A6C3"/>
		<stop  offset="0" style="stop-color:#1DA3C2"/>
		<stop  offset="0" style="stop-color:#1BA2C1"/>
		<stop  offset="1" style="stop-color:#126477"/>
	</linearGradient>
	<path class="st2" d="M391.4,126.1c0,0-23.3,37.4-20.5,52.1c2.9,14.7,49.5-24.9,49.5-24.9s-33.3,30.1-50.5,90.9
		c-14.3,50.6-10.6,122.6,14.3,150.2c20.6,22.8,65.7,50.2,106.6,42.2c94.6-18.5,121-56.4,146.5-110c23.2-48.9,10.5-91.5,0-107.8
		c-14.2-21.9-31.5-44.8-70.2-61.6c-33.1-14.3-69.5-14.2-128.1-8.5c0,0,24.7-15.3,34.7-28s-49.2-11-49.2-11s43.9-12.8,119.1-3.9
		c62.8,7.5,104.9,43.1,116.8,85.8c30.4,109.3-54.1,157.3-70.7,166.7c-38.5,21.6-80,33.3-103.9,38.6c-20.5,4.5-107.4,42.9-152.7-45.4
		c-9.1-17.7-15.8-63.5-10.8-94.7c5.9-37.2,18.1-70.1,33.8-94.4C366.1,147,382.6,130.2,391.4,126.1z"/>
	<polygon class="st1" points="618,292.4 509.4,501.3 422.3,349.2 	"/>
	<path class="st3" d="M406.7,353.7"/>
	<path class="st3" d="M422.3,349.2"/>
</g>
</svg>
