<?xml version="1.0" encoding="utf-8"?>
<!-- Generator: Adobe Illustrator 25.2.0, SVG Export Plug-In . SVG Version: 6.00 Build 0)  -->
<svg version="1.1" id="Layer_1" xmlns="http://www.w3.org/2000/svg" xmlns:xlink="http://www.w3.org/1999/xlink" x="0px" y="0px"
	 viewBox="0 0 2000 1000" style="enable-background:new 0 0 2000 1000;" xml:space="preserve">
<style type="text/css">
	.st0{fill:#FF0101;}
	.st1{fill:#FFFBFB;}
	.st2{fill:#FFFCFC;}
	.st3{fill:#FFFDFD;}
</style>
<path id="container" class="st0" d="M1961.15,641.31L997.56,806.56L38.31,641.31l-0.02-385.8c0,0,5.36-0.85,7.86-1.13
	c15.56-1.73,31.12-3.4,46.68-5.1c20.04-2.19,40.06-4.45,60.1-6.56c13.63-1.43,27.27-2.62,40.91-3.96
	c14.02-1.38,28.03-2.85,42.06-4.18c10.52-1.01,21.05-1.85,31.58-2.79c11.3-1.01,22.61-2.05,33.91-3.05
	c5.46-0.49,10.92-0.96,16.38-1.4c18.92-1.53,37.84-3.1,56.77-4.55c13.27-1.02,26.55-1.85,39.83-2.82
	c13.47-0.98,26.93-2.06,40.4-3.03c8-0.57,16.02-1.01,24.03-1.5c14.45-0.88,28.91-1.76,43.37-2.63c17.97-1.08,35.95-2.25,53.93-3.23
	c18.57-1,37.15-1.83,55.72-2.7c16.04-0.76,32.07-1.48,48.11-2.2c13.49-0.62,26.98-1.25,40.48-1.8c8.8-0.36,17.61-0.6,26.42-0.87
	c24.86-0.75,49.71-1.62,74.57-2.21c36.61-0.87,73.22-1.38,109.83-2.33c37.99-0.98,75.98-0.96,113.97-0.45
	c30.55,0.41,61.09,1.1,91.64,1.73c22.91,0.48,45.82,0.91,68.72,1.63c27.4,0.86,54.79,2,82.19,3.01c13.7,0.51,27.4,0.96,41.09,1.55
	c12.72,0.54,25.43,1.23,38.14,1.85c10.17,0.5,20.34,0.97,30.51,1.5c12.9,0.68,25.81,1.39,38.71,2.09
	c9.58,0.52,19.16,0.98,28.74,1.56c16.41,0.99,32.83,2.05,49.24,3.1c6.84,0.43,13.67,0.91,20.51,1.36
	c14.07,0.91,28.14,1.71,42.2,2.74c18.16,1.32,36.3,2.83,54.45,4.23c12.1,0.94,24.21,1.78,36.31,2.76
	c11.51,0.94,23.01,2.04,34.51,3.03c10.92,0.94,21.85,1.8,32.77,2.77c10.53,0.93,21.05,1.94,31.57,2.93
	c9.94,0.94,19.88,1.86,29.81,2.83c10.52,1.03,21.03,2.09,31.55,3.15c8.96,0.9,17.92,1.78,26.87,2.71
	c9.93,1.04,19.85,2.13,29.78,3.18c8.95,0.95,17.9,1.83,26.85,2.82c11.87,1.31,23.73,2.68,35.58,4.05
	c4.85,0.56,14.33,1.71,14.33,1.71L1961.15,641.31z"/>
<g id="words">
	<path class="st1" d="M1520.65,465.66c0,0-0.11,30.37-0.29,42.02c-0.08,9.55,6.79,16.75,6.79,16.75s-1.63,0-2.26,0
		c-18.8,0.03-56.4-0.01-56.4-0.01h-1.51c0,0,7.1-7.78,7.2-15.71c0.02-4.89,0.13-9.78,0.13-14.67c0.01-43.62,0-130.85,0-130.85
		l-0.12-4.89c-0.02-0.94-0.78-1.68-1.72-1.68c-26.28-0.02-353.25-0.32-381.3-0.34c-1.02,0-1.83-0.89-1.71-1.91
		c0.1-0.89,0.29-1.66,0.56-2.38c2-5.28,5.6-9.35,10.11-12.66c4.78-3.51,10.12-5.92,15.76-7.64c9.6-2.93,19.43-4.46,29.49-4.45
		c68.93,0.06,137.87,0.14,206.8,0.15c47.85,0.01,174.97-0.15,174.97-0.15s-7.04,3.78-6.77,14.29c0.05,29.73,0.01,59.46,0.02,89.19
		c0,0.91,0.18,1.82,0.26,2.58c0.52,0.17,0.71,0.29,0.89,0.28c0.16-0.01,0.33-0.15,0.47-0.26c0.3-0.25,0.61-0.5,0.86-0.8
		c12.65-14.59,25.29-29.19,38.25-44.16c0.32-0.37,0.79-0.59,1.28-0.6c16.31-0.29,32.87-0.06,49.56-0.13c0.66,0,1.26,0.37,1.55,0.96
		c0.01,0.01,0.01,0.03,0.02,0.04c0.94,1.89,0.64,4.17-0.75,5.75c-15.9,18.04-31.78,36.06-47.81,54.25
		c-0.49,0.56-0.57,1.38-0.19,2.02c0.49,0.84,0.96,1.65,1.52,2.39c15.38,20.74,30.79,41.46,46.18,62.19
		c1.16,1.57,2.36,3.12,3.36,4.79c0.89,1.49-0.33,3.8-2.05,4.06c-0.77,0.12-2.34,0.1-2.34,0.1l-49.65,0.24
		c-0.58,0-1.13-0.29-1.45-0.77c-3.62-5.52-25.62-39.05-37.82-57.3C1522.12,465.76,1521.36,465.48,1520.65,465.66
		C1520.65,465.66,1520.65,465.66,1520.65,465.66z"/>
	<path class="st2" d="M343.79,326.75c30.22,0,59.6-0.14,88.98,0.07c12.38,0.09,24.57,1.89,36.19,6.56
		c12.87,5.17,22.69,13.65,28.76,26.26c2.75,5.72,4.19,11.78,4.91,18.02c1.52,13.26,0.37,26.17-5.71,38.31
		c-5.99,11.95-15.33,20.08-27.99,24.41c-1.64,0.56-3.28,1.12-5,1.7c-0.13,2.29,1.35,3.75,2.32,5.35
		c12.38,20.63,24.8,41.22,37.21,61.83c2.21,3.68,4.41,7.37,6.52,10.9c-0.65,3.19-2.34,4.34-5.42,4.31
		c-15.47-0.11-30.94-0.05-46.42-0.07c-0.77,0-1.6,0.2-2.8,0.07c-13.35-25.46-26.7-51.41-40.12-77c-5.58,0-10.82,0-16.44,0
		c-0.15,1.18-0.41,2.28-0.41,3.37c-0.01,19.17,0.05,38.34,0.02,57.51c0.08,12.74,6.61,16.12,6.61,16.12h-61.56
		c0,0,7.08-4.29,7.08-16.15c-0.08-55.55-0.08-111.11,0.02-166.66C350.39,333.01,344.48,327.82,343.79,326.75z M398.54,406.32
		c12.11-0.17,23.63,0.4,35.12-0.46c3.45-0.26,6.99-1.14,10.21-2.42c5.64-2.23,9.3-6.4,9.92-12.68c0.69-6.91-0.16-13.4-6.44-17.74
		c-2.05-1.42-4.42-2.51-6.8-3.3c-4.85-1.6-9.93-2.11-15.03-2.14c-7.82-0.04-15.64-0.04-23.47-0.01c-1.12,0-2.23,0.24-3.53,0.39
		C398.54,380.69,398.54,393.13,398.54,406.32z"/>
	<path class="st2" d="M1050.31,357.82v151.35c0,0.78-0.05,1.57-0.01,2.35c0.42,9.24,6.44,12.38,6.44,12.38s-1.63-0.05-1.82-0.05
		c-19.17,0.01-57.98,0.15-57.98,0.15s5.75-3.33,5.75-12.38c0-22.3-0.05-44.59-0.06-66.88c0-0.94-0.08-1.89-0.11-2.45
		c-0.44-0.51-0.54-0.7-0.7-0.8c-0.15-0.1-0.36-0.16-0.55-0.16c-24.08-0.06-48.15-0.12-72.23-0.16c-0.97,0-1.94,0.15-2.91,0.27
		c-0.15,0.02-0.28,0.23-0.79,0.67c-0.05,1.57-0.18,3.48-0.18,5.4c0,19.55,0.44,39.11-0.03,58.66c-0.29,11.97,6.17,17.73,6.17,17.73
		s-1.54,0-2.54,0c-16.25,0.06-32.5,0.07-48.75,0.08c-3.3,0.01-4.7,0.02-8.27,0.02c0.41-0.59,5.84-4.05,5.84-15.13
		c0-5.08,0.09-10.16,0.09-15.25c0-50.64,0.01-101.29,0.01-151.93c0-9.38-5.98-15.06-5.98-15.06h58.51c0,0-5.02,3.57-5.02,13.85
		c0,18.77,0.03,37.54,0.06,56.31c0,0.18,0.12,0.35,0.32,0.94c0.66,0.16,1.54,0.56,2.43,0.57c24.08,0.03,48.16,0.02,72.24,0
		c0.56-0.01,1.12-0.22,2.04-0.4c0.12-1.46,0.34-2.96,0.34-4.47c0.02-16.81,0.04-33.63,0.04-50.44c0-12.12-6.1-16.29-6.1-16.29h56.42
		h3.76c0,0-6.08,3.38-6.35,14.7C1050.26,346.87,1050.31,352.34,1050.31,357.82z"/>
	<path class="st2" d="M1413.09,387.46c1.08-0.15,1.85-0.35,2.61-0.35c12.53-0.02,25.06,0.03,37.59-0.06
		c2.68-0.02,4.57,0.71,5.41,3.83c-15.75,44.19-47.37,133.55-47.37,133.55h-44.28c0,0-16.57-53.58-25.12-80.37
		c-1.71,0.56-1.71,1.96-2.04,3.15c-6.19,22.21-12.39,44.41-18.59,66.62c-0.94,3.37-2.83,10.6-2.83,10.6h-45.12
		c0,0-32.65-89.48-48.85-133.68c0.96-2.43,2.17-3.69,4.53-3.67c14.09,0.1,28.18,0.14,42.27,0.21c0.18,0,0.36,0.13,1.07,0.41
		c8.3,24.58,16.1,49.72,24.68,75.34c0.75-1.5,1.4-2.4,1.67-3.4c6.26-22.8,12.47-45.61,18.71-68.41c0.35-1.29,0.84-2.54,1.31-3.94
		c16.02,0,31.85,0,48,0c0.49,1.16,1.11,2.34,1.48,3.59c6.62,22.28,13.21,44.58,19.82,66.87c0.44,1.49,0.94,2.96,1.58,4.93
		c1.46-1.26,1.71-2.65,2.11-4.01c6.19-20.78,12.4-41.56,18.62-62.34C1411.23,393.37,1412.17,390.42,1413.09,387.46z"/>
	<path class="st3" d="M843.58,523.9c0,0-5.47-4.36-5.38-14.21c0.53-56.32-0.18-112.64,0.01-168.96c0.03-8.85,5.73-14.03,5.73-14.03
		h-54.13h-3.26c0,0,5.86,5.69,5.86,14.96c0,16.62-0.06,33.25-0.07,49.87c0,1.48-0.15,2.95-0.22,4.38c-1.75,0.18-2.34-1.03-3.29-1.6
		c-3.01-1.81-5.84-4.06-9.06-5.36c-13.81-5.56-28.11-6.94-42.58-3.28c-15.35,3.88-26.82,13.32-35.23,26.51
		c-8.76,13.74-12.55,28.93-12.49,45.14c0.04,11.88,2.19,23.33,7.41,34.08c12.21,25.14,35.81,36.79,61.59,36.2
		c13.11-0.3,24.75-5.31,34.56-14.2c0.68-0.62,1.31-1.52,2.62-0.66c0,2.42-0.09,4.96,0.03,7.5c0.1,2.38,1.26,3.46,3.68,3.7
		c0.77,0.08,1.56,0.04,2.35,0.04c13.31-0.01,39.94-0.06,39.94-0.06L843.58,523.9z M793.25,469.11
		c-3.85,9.94-11.25,15.63-21.89,17.04c-4.88,0.65-9.78,0.6-14.57-0.45c-11.56-2.53-19.64-12.03-21.01-24.47
		c-0.22-1.94-0.23-3.89-0.4-7.04c0.32-2.11,0.53-5.45,1.36-8.63c2.89-11.02,9.95-17.94,21.2-20.12c5.77-1.12,11.63-1,17.42,0.54
		c8.8,2.33,14.7,7.9,17.88,16.24C796.65,451.11,796.69,460.22,793.25,469.11z"/>
	<path class="st2" d="M585.95,470.65c0.75-0.86,7.91-3.75,7.91-15.96c-0.08-5.25,0.08-16.61,0.08-16.61l3.61,0.02
		c0,0,11.75-0.01,17.62-0.04c1.54-0.01,3.07-0.14,4.69-0.22c0.47-2.87-0.42-5.24-1.59-7.48c-4.09-7.81-10.75-11.74-19.41-12.09
		c-7.07-0.28-13.51,1.81-19.04,6.36c-3.26,2.68-5.58,6.04-6.91,10.01c-4.36,13.06-4.35,26.08,0.53,39.04
		c4.62,12.29,15.87,18.44,28.79,17.69c7.82-0.45,14.29-3.69,19.72-9.19c0.96-0.97,1.92-1.96,2.83-2.97
		c3.71-4.11,4.63-4.23,9.26-0.87c7.28,5.29,14.51,10.64,21.77,15.96c0.32,0.23,0.63,0.46,0.94,0.7c3.61,2.79,3.79,4.56,0.71,8.14
		c-7.15,8.32-15.91,14.42-26.07,18.47c-24.26,9.68-48.1,8.05-70.68-4.52c-22.23-12.38-33.43-32.23-34.92-57.49
		c-0.75-12.71,1.46-24.94,7.22-36.39c7.09-14.12,17.8-24.61,32.11-31.37c15.66-7.4,32.1-9.77,49.17-6.95
		c22.61,3.73,37.78,16.76,46.35,37.76c3.43,8.41,5.12,17.23,5.65,26.24c0.33,5.65,0.22,11.33,0.17,17c-0.03,3.67-1.29,4.84-4.94,5
		c-0.98,0.04-1.96,0.01-2.94,0.01c-19.77,0.01-39.54,0.04-59.31,0.02C595.03,470.92,590.79,470.76,585.95,470.65z"/>
	<path class="st2" d="M1142.21,436.52c0,0,0.28,3.95,0.32,5.86c0.06,2.54,0.12,5.09,0,7.63c-0.29,13.53,7.52,17.34,7.52,17.34
		s-2.81-0.09-4.04-0.03c-5.99,0.32-11.51,2.1-16.54,5.35c-3.33,2.15-5.31,5.16-5.53,9.18c-0.22,4.04,1.17,7.42,4.81,9.36
		c2.38,1.27,4.99,2.46,7.62,2.88c8.19,1.3,15.97-0.18,23.14-4.47c6.19-3.71,9.59-9.18,9.76-16.37c0.27-11.73,0.91-23.45,0.1-35.19
		c-0.87-12.49-8.68-20.53-21.24-21.43c-9.36-0.67-17.85,1.78-25.39,7.32c-2.51,1.85-4.74,4.07-7.12,6.1
		c-2.46,2.1-4.33,2.11-6.65-0.22c-6.21-6.25-12.37-12.54-18.48-18.88c-2.65-2.75-2.46-4.68,0.63-7.36
		c7.18-6.22,15.29-10.84,24.23-14.05c18.16-6.52,36.72-7.66,55.51-3.68c21.74,4.6,34.24,18.42,38.62,39.92
		c1.84,9.04,2.55,18.19,2.53,27.41c-0.05,17.8,0.14,35.61-0.09,53.4c-0.07,13.7,7.47,17.33,7.47,17.33l-2.14,0.04
		c0,0-22.16-0.02-33.25-0.06c-2.63-0.01-5.26-0.02-7.88-0.03c-6.32-0.03-6.69-0.41-6.78-6.56c-0.02-1.15,0-2.3,0-4
		c-1.03,0.48-1.78,0.64-2.25,1.08c-7.7,7.32-17.24,10.63-27.42,12.33c-10,1.67-19.92,0.93-29.59-2.15
		c-9.99-3.18-18.32-8.7-24.12-17.66c-3.25-5.02-5.13-10.48-5.92-16.39c-0.71-5.3-0.5-10.56,0.38-15.78
		c1.67-9.89,6.73-17.81,14.56-24.02c4.33-3.43,9.15-6.06,14.32-7.94c9.79-3.56,19.93-5.67,30.33-6.43
		C1140.34,436.28,1142.21,436.52,1142.21,436.52z"/>
	<path class="st3" d="M652.9,601.22l0.96,59.26c0,0,402.99-117.82,690.22-75.44C1344.09,585.05,1128.64,516.88,652.9,601.22z"/>
</g>
<path class="st0" d="M13.36,637.44"/>
</svg>
