<svg id="Layer_1" data-name="Layer 1" xmlns="http://www.w3.org/2000/svg" xmlns:xlink="http://www.w3.org/1999/xlink" viewBox="0 0 1299.43 837.17"><defs><style>.cls-1,.cls-8,.cls-9{stroke:#4d4d4d;}.cls-1,.cls-6,.cls-8,.cls-9{stroke-miterlimit:10;}.cls-1{stroke-width:0.5px;fill:url(#linear-gradient);}.cls-2{fill:url(#linear-gradient-2);}.cls-3{fill:url(#linear-gradient-3);}.cls-4{fill:url(#linear-gradient-4);}.cls-5{fill:url(#linear-gradient-5);}.cls-6{stroke:#000;stroke-width:1.03px;fill:url(#linear-gradient-6);}.cls-7{fill:url(#linear-gradient-7);}.cls-8,.cls-9{stroke-width:0.52px;}.cls-8{fill:url(#linear-gradient-8);}.cls-9{fill:url(#linear-gradient-9);}</style><linearGradient id="linear-gradient" x1="0.25" y1="418.59" x2="1299.18" y2="418.59" gradientUnits="userSpaceOnUse"><stop offset="0" stop-color="#662d91"/><stop offset="1" stop-color="#93278f"/></linearGradient><linearGradient id="linear-gradient-2" x1="229.37" y1="491.1" x2="1087.59" y2="491.1" gradientUnits="userSpaceOnUse"><stop offset="0" stop-color="#4d4d4d"/><stop offset="1" stop-color="#333"/></linearGradient><linearGradient id="linear-gradient-3" x1="229.38" y1="484.96" x2="1087.59" y2="484.96" gradientUnits="userSpaceOnUse"><stop offset="0" stop-color="#c69c6d"/><stop offset="1" stop-color="#a67c52"/></linearGradient><linearGradient id="linear-gradient-4" x1="424.41" y1="345.13" x2="702.65" y2="345.13" gradientUnits="userSpaceOnUse"><stop offset="0" stop-color="#999"/><stop offset="1" stop-color="#ccc"/></linearGradient><linearGradient id="linear-gradient-5" x1="424.41" y1="469.68" x2="892.56" y2="469.68" gradientUnits="userSpaceOnUse"><stop offset="0" stop-color="gray"/><stop offset="1" stop-color="#b3b3b3"/></linearGradient><linearGradient id="linear-gradient-6" x1="431.12" y1="343.03" x2="697.42" y2="343.03" gradientUnits="userSpaceOnUse"><stop offset="0" stop-color="#93278f"/><stop offset="0.22" stop-color="#99258a"/><stop offset="0.51" stop-color="#a9217d"/><stop offset="0.83" stop-color="#c31968"/><stop offset="1" stop-color="#d4145a"/></linearGradient><linearGradient id="linear-gradient-7" x1="411.01" y1="439.93" x2="859.02" y2="328.23" gradientUnits="userSpaceOnUse"><stop offset="0" stop-color="#4d4d4d"/><stop offset="1" stop-color="#1a1a1a"/></linearGradient><linearGradient id="linear-gradient-8" x1="457.01" y1="457.82" x2="808.01" y2="457.82" gradientUnits="userSpaceOnUse"><stop offset="0" stop-color="#333"/><stop offset="1" stop-color="#4d4d4d"/></linearGradient><linearGradient id="linear-gradient-9" x1="658.48" y1="484.96" x2="804.94" y2="484.96" gradientUnits="userSpaceOnUse"><stop offset="0" stop-color="#b3b3b3"/><stop offset="1" stop-color="#b3b3b3"/></linearGradient></defs><rect class="cls-1" x="0.25" y="0.25" width="1298.93" height="836.67"/><polygon class="cls-2" points="1087.59 479.96 579.94 618.88 346 548.17 229.37 512.26 229.37 499.99 748.37 363.31 970.97 431.78 970.89 431.8 1087.59 467.69 1087.59 479.96"/><polygon class="cls-3" points="1087.59 467.69 579.94 606.61 347.17 535.59 229.38 499.99 748.37 363.31 970.98 431.78 970.89 431.8 1087.59 467.69"/><polygon class="cls-4" points="424.4 275.57 702.65 218.29 702.65 401.9 424.4 471.98 424.4 275.57"/><polygon class="cls-5" points="424.4 471.98 632.07 537.45 892.56 462.01 702.65 401.9 424.4 471.98"/><polygon class="cls-6" points="431.12 282.79 697.42 226.9 697.42 392.36 431.12 459.16 431.12 282.79"/><path class="cls-7" d="M424.16,275.32h-2.07a2.47,2.47,0,0,0-2.47,2.47V474a4,4,0,0,0,2.78,3.84l203,67.16a21.36,21.36,0,0,0,12.83.19l250.31-74.63a5.23,5.23,0,0,0,3.74-5v-3.76L631.82,537.2,424.16,471.73Z" transform="translate(0.25 0.25)"/><polygon class="cls-8" points="457.01 473.43 567.73 506.9 808.01 441.15 702.65 408.75 457.01 473.43"/><polygon class="cls-9" points="658.48 486.11 737.59 464 804.94 483.24 725.6 505.92 658.48 486.11"/></svg>